<svg width="33" height="33" viewBox="0 0 33 33" fill="none" xmlns="http://www.w3.org/2000/svg">
<path d="M9.869 13.5617L16.1368 7.29385L22.4075 13.5644L26.0544 9.91745L16.1368 0L6.22234 9.91448L9.86913 13.5614L9.869 13.5617ZM0 16.1368L3.64704 12.4893L7.29383 16.1361L3.64678 19.7831L0 16.1368ZM9.869 18.7124L16.1368 24.9798L22.4074 18.7094L26.0563 22.3544L26.0544 22.3564L16.1368 32.2737L6.22234 22.3592L6.21718 22.3541L9.86938 18.712L9.869 18.7124ZM24.9797 16.1384L28.6268 12.4913L32.2736 16.1381L28.6267 19.7852L24.9797 16.1384Z" fill="#C59B2F"/>
<path d="M19.835 16.1347H19.8365L16.1361 12.4341L13.401 15.1684L13.0868 15.4828L12.4388 16.131L12.4336 16.136L12.4388 16.1413L16.1361 19.8392L19.8368 16.1386L19.8386 16.1365L19.8352 16.1347" fill="#C59B2F"/>
</svg>
