<svg width="8" height="16" viewBox="0 0 8 16" fill="none" xmlns="http://www.w3.org/2000/svg">
<path d="M4.377 2.45632C4.39633 2.47516 4.479 2.54627 4.547 2.61252C4.97467 3.00089 5.67467 4.01404 5.88833 4.54433C5.92267 4.62486 5.99533 4.82846 6 4.93725C6 5.04148 5.976 5.14085 5.92733 5.23567C5.85933 5.35387 5.75233 5.44869 5.626 5.50065C5.53833 5.5341 5.276 5.58605 5.27133 5.58605C4.98433 5.63801 4.518 5.66658 4.00267 5.66658C3.51167 5.66658 3.06433 5.63801 2.773 5.59547C2.76833 5.5906 2.44233 5.53864 2.33067 5.48181C2.12667 5.37758 2 5.17397 2 4.95608V4.93725C2.005 4.79534 2.13167 4.49691 2.13633 4.49691C2.35033 3.99521 3.016 3.00544 3.45833 2.60765C3.45833 2.60765 3.572 2.49562 3.643 2.44691C3.745 2.37092 3.87133 2.33325 3.99767 2.33325C4.13867 2.33325 4.27 2.37579 4.377 2.45632Z" fill="white" fill-opacity="0.6"/>
<path d="M3.623 13.5437C3.60367 13.5248 3.521 13.4537 3.453 13.3875C3.02533 12.9991 2.32533 11.986 2.11167 11.4557C2.07733 11.3751 2.00467 11.1715 2 11.0628C2 10.9585 2.024 10.8591 2.07267 10.7643C2.14067 10.6461 2.24767 10.5513 2.374 10.4994C2.46167 10.4659 2.724 10.4139 2.72867 10.4139C3.01567 10.362 3.482 10.3334 3.99733 10.3334C4.48833 10.3334 4.93567 10.362 5.227 10.4045C5.23167 10.4094 5.55767 10.4614 5.66933 10.5182C5.87333 10.6224 6 10.826 6 11.0439V11.0628C5.995 11.2047 5.86833 11.5031 5.86367 11.5031C5.64967 12.0048 4.984 12.9946 4.54167 13.3924C4.54167 13.3924 4.428 13.5044 4.357 13.5531C4.255 13.6291 4.12867 13.6667 4.00233 13.6667C3.86133 13.6667 3.73 13.6242 3.623 13.5437Z" fill="white" fill-opacity="0.6"/>
</svg>
