<svg width="240" height="62" viewBox="0 0 240 62" fill="none" xmlns="http://www.w3.org/2000/svg">
<path d="M79.5256 53.412C77.2434 53.412 75.3494 52.9621 73.8438 52.0625C72.3475 51.1534 71.2964 49.8608 70.6903 48.1847C70.0843 46.4991 69.9754 44.4962 70.3636 42.1762C70.7424 39.9224 71.5142 37.9527 72.679 36.2671C73.8532 34.572 75.3305 33.2557 77.1108 32.3182C78.8911 31.3712 80.875 30.8978 83.0625 30.8978C84.6155 30.8978 85.9934 31.1392 87.196 31.6222C88.3987 32.1051 89.393 32.8248 90.179 33.7813C90.965 34.7282 91.5 35.893 91.7841 37.2756C92.0682 38.6582 92.0587 40.2443 91.7557 42.0341L91.4858 43.7671H72.5369L73.1761 39.733H85.6761C85.7898 38.9943 85.7282 38.3362 85.4915 37.7585C85.2547 37.1809 84.8712 36.7311 84.3409 36.4091C83.8201 36.0777 83.1809 35.912 82.4233 35.912C81.6563 35.912 80.9366 36.0919 80.2642 36.4517C79.6013 36.8021 79.0379 37.2756 78.5739 37.8722C78.1099 38.4688 77.8068 39.1411 77.6648 39.8892L76.9119 44.0227C76.7604 44.9413 76.803 45.7273 77.0398 46.3807C77.2765 47.0341 77.6837 47.536 78.2614 47.8864C78.839 48.2273 79.5824 48.3978 80.4915 48.3978C81.0975 48.3978 81.6657 48.3173 82.196 48.1563C82.7263 47.9858 83.1998 47.7349 83.6165 47.4034C84.0426 47.0625 84.3883 46.6506 84.6534 46.1676L90.9886 46.3523C90.4773 47.7822 89.6866 49.0275 88.6165 50.0881C87.5464 51.1392 86.2396 51.9584 84.696 52.5455C83.1619 53.1231 81.4384 53.412 79.5256 53.412Z" fill="white"/>
<path d="M93.4851 53L97.1215 31.1818H103.869L103.201 35.1591H103.428C104.063 33.7197 104.891 32.6496 105.914 31.9489C106.937 31.2387 108.045 30.8835 109.238 30.8835C109.56 30.8835 109.882 30.9072 110.204 30.9546C110.535 30.9924 110.848 31.0493 111.141 31.125L110.119 37.1762C109.797 37.0531 109.375 36.9631 108.854 36.9063C108.334 36.84 107.86 36.8068 107.434 36.8068C106.61 36.8068 105.843 36.9915 105.133 37.3608C104.432 37.7207 103.835 38.2273 103.343 38.8807C102.86 39.5246 102.543 40.2822 102.391 41.1534L100.431 53H93.4851Z" fill="white"/>
<path d="M119.359 53.412C117.058 53.412 115.159 52.9385 113.663 51.9915C112.176 51.0445 111.13 49.7235 110.523 48.0284C109.917 46.3334 109.799 44.3637 110.168 42.1193C110.538 39.8845 111.3 37.9243 112.455 36.2387C113.611 34.5531 115.088 33.2415 116.887 32.304C118.686 31.3665 120.727 30.8978 123.009 30.8978C125.301 30.8978 127.19 31.3712 128.677 32.3182C130.173 33.2652 131.224 34.5862 131.83 36.2813C132.446 37.9763 132.569 39.9508 132.2 42.2046C131.83 44.4394 131.063 46.3996 129.898 48.0853C128.734 49.7614 127.256 51.0682 125.467 52.0057C123.677 52.9432 121.641 53.412 119.359 53.412ZM120.14 48.1705C120.992 48.1705 121.755 47.9148 122.427 47.4034C123.109 46.8921 123.682 46.1771 124.146 45.2585C124.61 44.34 124.941 43.2746 125.14 42.0625C125.339 40.8693 125.358 39.8229 125.197 38.9233C125.045 38.0142 124.723 37.3087 124.231 36.8068C123.738 36.2955 123.071 36.0398 122.228 36.0398C121.376 36.0398 120.609 36.3002 119.927 36.821C119.245 37.3324 118.672 38.0474 118.208 38.9659C117.754 39.875 117.427 40.9404 117.228 42.162C117.029 43.3551 117.005 44.4015 117.157 45.3012C117.308 46.2008 117.635 46.9063 118.137 47.4176C118.639 47.9195 119.307 48.1705 120.14 48.1705Z" fill="white"/>
<path d="M155.474 37.8438L149.21 38.0142C149.219 37.5502 149.115 37.143 148.897 36.7926C148.679 36.4328 148.371 36.1534 147.974 35.9546C147.576 35.7557 147.103 35.6563 146.553 35.6563C145.663 35.6563 144.863 35.8551 144.153 36.2529C143.452 36.6506 143.059 37.1667 142.974 37.8012C142.907 38.1421 143.002 38.4404 143.258 38.696C143.513 38.9423 144.082 39.1601 144.962 39.3495L149.053 40.1449C151.156 40.5616 152.68 41.286 153.627 42.3182C154.584 43.3409 154.924 44.6951 154.65 46.3807C154.404 47.8201 153.769 49.0654 152.746 50.1165C151.733 51.1676 150.441 51.982 148.869 52.5597C147.306 53.1279 145.578 53.412 143.684 53.412C140.483 53.412 138.068 52.768 136.44 51.4801C134.82 50.1828 134.063 48.464 134.167 46.3239L140.928 46.1534C140.957 46.9584 141.227 47.5644 141.738 47.9716C142.259 48.3693 142.964 48.5777 143.854 48.5966C144.83 48.6156 145.673 48.412 146.383 47.9858C147.093 47.5597 147.491 47.0341 147.576 46.4091C147.633 46.0019 147.496 45.6847 147.164 45.4574C146.842 45.2301 146.241 45.0265 145.36 44.8466L141.667 44.1222C139.546 43.715 138.012 42.9479 137.065 41.821C136.127 40.6847 135.805 39.2358 136.099 37.4745C136.345 36.0729 136.923 34.8845 137.832 33.9091C138.75 32.9243 139.948 32.1762 141.425 31.6648C142.912 31.1534 144.607 30.8978 146.511 30.8978C149.56 30.8978 151.861 31.518 153.414 32.7585C154.977 33.9896 155.663 35.6847 155.474 37.8438Z" fill="white"/>
<path d="M161.038 53L158.993 31.1818H165.967L166.578 45.1591H166.763L172.246 31.1818H179.05L179.959 45.0597H180.143L185.328 31.1818H192.303L182.97 53H175.541L174.234 40.287H173.993L168.482 53H161.038Z" fill="white"/>
<path d="M197.548 53.3693C196.165 53.3693 194.972 53.1373 193.968 52.6733C192.974 52.1998 192.245 51.4849 191.781 50.5284C191.326 49.572 191.217 48.3788 191.454 46.9489C191.662 45.7368 192.046 44.7188 192.604 43.8949C193.173 43.0616 193.869 42.3845 194.692 41.8637C195.526 41.3428 196.454 40.9451 197.477 40.6705C198.499 40.3959 199.569 40.2112 200.687 40.1165C201.937 40.0029 202.95 39.8798 203.727 39.7472C204.513 39.6146 205.1 39.4299 205.488 39.1932C205.876 38.947 206.113 38.6061 206.198 38.1705V38.0995C206.312 37.3703 206.156 36.8068 205.729 36.4091C205.303 36.0114 204.664 35.8125 203.812 35.8125C202.903 35.8125 202.126 36.0114 201.482 36.4091C200.838 36.8068 200.388 37.3561 200.133 38.0568L193.769 37.8296C194.167 36.5038 194.849 35.3201 195.815 34.2784C196.781 33.2273 198.007 32.4034 199.494 31.8068C200.99 31.2008 202.718 30.8978 204.678 30.8978C206.061 30.8978 207.311 31.0635 208.428 31.3949C209.546 31.7169 210.488 32.1904 211.255 32.8154C212.031 33.4309 212.585 34.1885 212.917 35.0881C213.248 35.9877 213.319 37.0152 213.13 38.1705L210.644 53H204.11L204.621 49.9603H204.451C203.94 50.6989 203.338 51.3239 202.647 51.8353C201.965 52.3466 201.198 52.7301 200.346 52.9858C199.494 53.2415 198.561 53.3693 197.548 53.3693ZM200.474 48.8239C201.203 48.8239 201.894 48.6724 202.548 48.3693C203.201 48.0663 203.75 47.6496 204.195 47.1193C204.65 46.5796 204.939 45.9546 205.062 45.2443L205.388 43.1705C205.19 43.2746 204.939 43.3693 204.636 43.4546C204.333 43.5398 204.011 43.6203 203.67 43.696C203.329 43.7623 202.978 43.8286 202.619 43.8949C202.268 43.9517 201.932 44.0038 201.61 44.0512C200.928 44.1553 200.336 44.3163 199.835 44.5341C199.333 44.7519 198.93 45.036 198.627 45.3864C198.334 45.7273 198.154 46.1345 198.087 46.608C197.974 47.3182 198.139 47.8674 198.585 48.2557C199.03 48.6345 199.659 48.8239 200.474 48.8239Z" fill="white"/>
<path d="M213.57 61.1818L218.599 31.1818H225.474L224.863 34.9176H225.076C225.455 34.2548 225.957 33.6156 226.582 33C227.216 32.3845 227.978 31.8826 228.869 31.4943C229.759 31.0966 230.777 30.8978 231.923 30.8978C233.438 30.8978 234.787 31.2955 235.971 32.0909C237.155 32.8864 238.016 34.1127 238.556 35.7699C239.096 37.4271 239.153 39.5388 238.727 42.1051C238.319 44.5767 237.581 46.6459 236.511 48.3125C235.45 49.9792 234.191 51.2292 232.732 52.0625C231.274 52.8959 229.745 53.3125 228.144 53.3125C227.046 53.3125 226.118 53.1326 225.36 52.7728C224.612 52.4129 224.02 51.9394 223.585 51.3523C223.149 50.7652 222.846 50.1354 222.675 49.4631H222.477L220.545 61.1818H213.57ZM223.585 42.0909C223.395 43.2652 223.386 44.2879 223.556 45.1591C223.727 46.0303 224.072 46.7074 224.593 47.1904C225.123 47.6638 225.81 47.9006 226.653 47.9006C227.505 47.9006 228.263 47.6638 228.925 47.1904C229.598 46.7074 230.161 46.0303 230.616 45.1591C231.07 44.2879 231.402 43.2652 231.61 42.0909C231.79 40.9167 231.795 39.8987 231.624 39.037C231.463 38.1752 231.127 37.5076 230.616 37.0341C230.104 36.5606 229.418 36.3239 228.556 36.3239C227.713 36.3239 226.946 36.5559 226.255 37.0199C225.573 37.4839 225.005 38.1468 224.55 39.0085C224.096 39.8703 223.774 40.8977 223.585 42.0909Z" fill="white"/>
<g clip-path="url(#clip0_205_533)">
<path d="M53.5577 0H34.0499C34.0611 0.0327508 34.0691 0.0665248 34.0739 0.100851C34.2824 1.26333 34.2824 2.45434 34.0739 3.61682C33.9196 4.48987 33.9653 5.38716 34.2077 6.23947C34.45 7.09178 34.8825 7.87632 35.4716 8.53257C36.3852 9.56507 37.54 10.3489 38.8303 10.8122C39.6346 11.1044 40.515 11.1 41.3165 10.7998C42.118 10.4996 42.7893 9.92271 43.2123 9.17072C43.2312 9.13942 43.2432 9.10812 43.2621 9.08204C43.3386 8.93862 43.4501 8.81748 43.5861 8.73019C43.722 8.64291 43.8778 8.59241 44.0386 8.58351C44.1993 8.57461 44.3596 8.60762 44.5041 8.67938C44.6487 8.75113 44.7726 8.85924 44.8641 8.99336C46.0897 10.8232 46.6432 13.0303 46.4284 15.2306C46.4284 15.2306 48.1661 32.7583 55.0138 42.7863C55.3572 43.2853 55.7367 43.7722 56.1162 44.2452C56.6313 44.8886 57.7818 46.7752 55.1821 48.5436C52.2528 50.5311 39.0088 42.6924 31.5034 31.2368C29.9428 28.8356 28.2601 26.518 26.4621 24.2935C25.3631 22.9372 24.0581 21.2505 22.6742 19.3082C22.5762 19.17 22.4457 19.0587 22.2946 18.9844C22.1434 18.91 21.9764 18.875 21.8085 18.8824C21.6407 18.8898 21.4773 18.9395 21.3331 19.0269C21.189 19.1143 21.0686 19.2367 20.9828 19.383L0 55H21.8448L27.8289 44.7407H40.9852L42.7624 55H63L53.5577 0Z" fill="white"/>
</g>
<defs>
<clipPath id="clip0_205_533">
<rect width="63" height="55" fill="white"/>
</clipPath>
</defs>
</svg>
