<svg width="63" height="55" viewBox="0 0 63 55" fill="none" xmlns="http://www.w3.org/2000/svg">
<g clip-path="url(#clip0_110_1027)">
<path d="M53.5577 0H34.0499C34.0611 0.0327508 34.0691 0.0665248 34.0739 0.100851C34.2824 1.26333 34.2824 2.45434 34.0739 3.61682C33.9196 4.48987 33.9653 5.38716 34.2077 6.23947C34.45 7.09178 34.8824 7.87632 35.4716 8.53257C36.3852 9.56507 37.54 10.3489 38.8302 10.8122C39.6346 11.1044 40.515 11.1 41.3165 10.7998C42.118 10.4996 42.7893 9.92271 43.2123 9.17072C43.2311 9.13942 43.2432 9.10812 43.2621 9.08204C43.3386 8.93862 43.4501 8.81748 43.5861 8.73019C43.722 8.64291 43.8778 8.59241 44.0386 8.58351C44.1993 8.57461 44.3596 8.60762 44.5041 8.67938C44.6487 8.75113 44.7726 8.85924 44.8641 8.99336C46.0897 10.8232 46.6432 13.0303 46.4284 15.2306C46.4284 15.2306 48.166 32.7583 55.0138 42.7863C55.3572 43.2853 55.7367 43.7722 56.1162 44.2452C56.6313 44.8886 57.7818 46.7752 55.1821 48.5436C52.2527 50.5311 39.0088 42.6924 31.5034 31.2368C29.9428 28.8356 28.2601 26.518 26.462 24.2935C25.3631 22.9372 24.0581 21.2505 22.6742 19.3082C22.5762 19.17 22.4457 19.0587 22.2946 18.9844C22.1434 18.91 21.9764 18.875 21.8085 18.8824C21.6407 18.8898 21.4773 18.9395 21.3331 19.0269C21.1889 19.1143 21.0686 19.2367 20.9828 19.383L-1.14441e-05 55H21.8448L27.8289 44.7407H40.9852L42.7624 55H63L53.5577 0Z" fill="white"/>
</g>
<defs>
<clipPath id="clip0_110_1027">
<rect width="63" height="55" fill="white"/>
</clipPath>
</defs>
</svg>
